# xmcd
#
# Track frame offsets:
#	150
#	10426
#	24524
#	38176
#	52877
#	67875
#	83478
#	107099
#	113325
#	125704
#	140702
#	157203
#	171380
#	187052
#
# Disc length: 2669 seconds
#
# Revision: 0
# Processed by: cddbd v1.5.2PL0 Copyright (c) Steve Scherf et al.
# Submitted via: EasyCDDAExtractor 16.0.6.1
#
DISCID=bd0a6b0e
DTITLE=Ζαγοραίος Σπύρος - Χρυσή εποχή 17-Σπύρος Ζαγοραίος
DYEAR=1985
DGENRE=Ρεμπέτικη
TTITLE0=Μέσ' στης πόλης το χαμάμ [διασκ. Σπύρος Ζαγοραίος]
TTITLE1=Μην είσαι ψεύτρα δίγνωμη [Απόστολος Χατζηχρήστος]
TTITLE2=Η Στέλλα η Σαλονικιά [Δημήτρης Γκούτης]
TTITLE3=Ο Μπενούκας παίζει ζάρια [Γιώργος Μητσάκης]
TTITLE4=Σβήσαν τα φώτα κάτω στ' Ανάπλι [Κ.Καπετάνιος-Χ.Βασιλειάδης]
TTITLE5=Τα χώματα της ξενητειάς [Βασίλης Τσιτσάνης]
TTITLE6=Με μεθάς και με ζαλίζεις [Δ. Κυριαζόπουλος]
TTITLE7=Φούντα και μπεγλέρι [Δημήτρης Γκούτης]
TTITLE8=Μόνο τα βουνά δεν σμίγουν [Μπάμπης Μπακάλης-Κώστας Βίρβος]
TTITLE9=Της ζωής τα συντρίμμια [Δημήτρης Γκούτης]
TTITLE10=Η μεγάλη μας αγάπη [Σπύρος Ζαγοραίος]
TTITLE11=Αννούσα [Γιώργος Ροβερτάκης]
TTITLE12=Η γλώσσα της μαγκιάς [Β. Σπυλιόπουλος]
TTITLE13=Ένας μπαγλαμάς μουρμούρης [Θ. Δεβενιώτης-Κώστας Βίρβος]
EXTD=
EXTT0=
EXTT1=
EXTT2=
EXTT3=
EXTT4=
EXTT5=
EXTT6=
EXTT7=
EXTT8=
EXTT9=
EXTT10=
EXTT11=
EXTT12=
EXTT13=
PLAYORDER=
